<svg width="199" height="40" viewBox="0 0 199 40" fill="none" xmlns="http://www.w3.org/2000/svg">
<g clip-path="url(#clip0_405_3574)">
<path fill-rule="evenodd" clip-rule="evenodd" d="M8 10C8 8.61929 9.11929 7.5 10.5 7.5H14.25C15.6307 7.5 16.75 8.61929 16.75 10V30C16.75 31.3807 15.6307 32.5 14.25 32.5H10.5C9.11929 32.5 8 31.3807 8 30V10ZM14.25 10H10.5V30H14.25V10Z" fill="#F75A68"/>
<path fill-rule="evenodd" clip-rule="evenodd" d="M24.25 10C24.25 8.61929 25.3693 7.5 26.75 7.5H30.5C31.8807 7.5 33 8.61929 33 10V30C33 31.3807 31.8807 32.5 30.5 32.5H26.75C25.3693 32.5 24.25 31.3807 24.25 30V10ZM30.5 10H26.75V30H30.5V10Z" fill="#F75A68"/>
<path fill-rule="evenodd" clip-rule="evenodd" d="M30.5 12.5C30.5 11.8096 31.0596 11.25 31.75 11.25H35.5C36.163 11.25 36.7989 11.5134 37.2678 11.9822C37.7366 12.4511 38 13.087 38 13.75V26.25C38 26.913 37.7366 27.5489 37.2678 28.0178C36.7989 28.4866 36.163 28.75 35.5 28.75H31.75C31.0596 28.75 30.5 28.1904 30.5 27.5C30.5 26.8096 31.0596 26.25 31.75 26.25H35.5L35.5 13.75L31.75 13.75C31.0596 13.75 30.5 13.1904 30.5 12.5Z" fill="#F75A68"/>
<path fill-rule="evenodd" clip-rule="evenodd" d="M3.73223 11.9822C4.20107 11.5134 4.83696 11.25 5.5 11.25H9.25C9.94036 11.25 10.5 11.8096 10.5 12.5C10.5 13.1904 9.94036 13.75 9.25 13.75L5.5 13.75V26.25H9.25C9.94036 26.25 10.5 26.8096 10.5 27.5C10.5 28.1904 9.94036 28.75 9.25 28.75H5.5C4.83696 28.75 4.20108 28.4866 3.73223 28.0178C3.26339 27.5489 3 26.913 3 26.25V13.75C3 13.087 3.26339 12.4511 3.73223 11.9822Z" fill="#F75A68"/>
<path fill-rule="evenodd" clip-rule="evenodd" d="M14.25 20C14.25 19.3096 14.8096 18.75 15.5 18.75H25.5C26.1904 18.75 26.75 19.3096 26.75 20C26.75 20.6904 26.1904 21.25 25.5 21.25H15.5C14.8096 21.25 14.25 20.6904 14.25 20Z" fill="#F75A68"/>
<path fill-rule="evenodd" clip-rule="evenodd" d="M35.5 20C35.5 19.3096 36.0596 18.75 36.75 18.75H39.25C39.9404 18.75 40.5 19.3096 40.5 20C40.5 20.6904 39.9404 21.25 39.25 21.25H36.75C36.0596 21.25 35.5 20.6904 35.5 20Z" fill="#F75A68"/>
<path fill-rule="evenodd" clip-rule="evenodd" d="M0.5 20C0.5 19.3096 1.05964 18.75 1.75 18.75H4.25C4.94036 18.75 5.5 19.3096 5.5 20C5.5 20.6904 4.94036 21.25 4.25 21.25H1.75C1.05964 21.25 0.5 20.6904 0.5 20Z" fill="#F75A68"/>
</g>
<path d="M58.7266 9.59375V29.5H54.625V9.59375H58.7266ZM70.6484 9.59375L62.7598 19.4238L58.207 24.3184L57.4688 20.4355L60.5449 16.2246L65.6172 9.59375H70.6484ZM65.9863 29.5L60.1211 20.2988L63.1562 17.7559L70.8398 29.5H65.9863ZM76.3359 14.707V29.5H72.3848V14.707H76.3359ZM72.1387 10.8516C72.1387 10.2773 72.3392 9.80339 72.7402 9.42969C73.1413 9.05599 73.679 8.86914 74.3535 8.86914C75.0189 8.86914 75.5521 9.05599 75.9531 9.42969C76.3633 9.80339 76.5684 10.2773 76.5684 10.8516C76.5684 11.4258 76.3633 11.8997 75.9531 12.2734C75.5521 12.6471 75.0189 12.834 74.3535 12.834C73.679 12.834 73.1413 12.6471 72.7402 12.2734C72.3392 11.8997 72.1387 11.4258 72.1387 10.8516ZM83.4453 17.8652V29.5H79.5078V14.707H83.1992L83.4453 17.8652ZM82.8711 21.584H81.8047C81.8047 20.4902 81.946 19.5059 82.2285 18.6309C82.5111 17.7467 82.9076 16.9948 83.418 16.375C83.9284 15.7461 84.5345 15.2676 85.2363 14.9395C85.9473 14.6022 86.7402 14.4336 87.6152 14.4336C88.3079 14.4336 88.9414 14.5339 89.5156 14.7344C90.0898 14.9349 90.582 15.2539 90.9922 15.6914C91.4115 16.1289 91.7305 16.7077 91.9492 17.4277C92.1771 18.1478 92.291 19.0273 92.291 20.0664V29.5H88.3262V20.0527C88.3262 19.3965 88.235 18.8861 88.0527 18.5215C87.8704 18.1569 87.6016 17.9017 87.2461 17.7559C86.8997 17.6009 86.4714 17.5234 85.9609 17.5234C85.4323 17.5234 84.972 17.6283 84.5801 17.8379C84.1973 18.0475 83.8783 18.3392 83.623 18.7129C83.377 19.0775 83.1901 19.5059 83.0625 19.998C82.9349 20.4902 82.8711 21.0189 82.8711 21.584ZM104.65 14.707H108.219V29.0078C108.219 30.3568 107.918 31.5007 107.316 32.4395C106.724 33.3874 105.895 34.1029 104.828 34.5859C103.762 35.0781 102.522 35.3242 101.109 35.3242C100.49 35.3242 99.8333 35.2422 99.1406 35.0781C98.457 34.9141 97.8008 34.6589 97.1719 34.3125C96.5521 33.9661 96.0326 33.5286 95.6133 33L97.3496 30.6758C97.8053 31.2044 98.334 31.6146 98.9355 31.9062C99.5371 32.207 100.202 32.3574 100.932 32.3574C101.643 32.3574 102.244 32.2253 102.736 31.9609C103.229 31.7057 103.607 31.3275 103.871 30.8262C104.135 30.334 104.268 29.737 104.268 29.0352V18.125L104.65 14.707ZM94.6973 22.2812V21.9941C94.6973 20.8639 94.834 19.8385 95.1074 18.918C95.39 17.9883 95.7865 17.1908 96.2969 16.5254C96.8164 15.86 97.4453 15.3451 98.1836 14.9805C98.9219 14.6159 99.7559 14.4336 100.686 14.4336C101.67 14.4336 102.495 14.6159 103.16 14.9805C103.826 15.3451 104.372 15.8646 104.801 16.5391C105.229 17.2044 105.562 17.9928 105.799 18.9043C106.045 19.8066 106.236 20.7956 106.373 21.8711V22.5C106.236 23.5299 106.031 24.487 105.758 25.3711C105.484 26.2552 105.124 27.0299 104.678 27.6953C104.231 28.3516 103.675 28.862 103.01 29.2266C102.354 29.5911 101.57 29.7734 100.658 29.7734C99.7467 29.7734 98.9219 29.5866 98.1836 29.2129C97.4544 28.8392 96.8301 28.3151 96.3105 27.6406C95.791 26.9661 95.39 26.1732 95.1074 25.2617C94.834 24.3503 94.6973 23.3568 94.6973 22.2812ZM98.6348 21.9941V22.2812C98.6348 22.8919 98.694 23.4616 98.8125 23.9902C98.931 24.5189 99.1133 24.9883 99.3594 25.3984C99.6146 25.7995 99.929 26.1139 100.303 26.3418C100.686 26.5605 101.137 26.6699 101.656 26.6699C102.376 26.6699 102.964 26.5195 103.42 26.2188C103.876 25.9089 104.217 25.485 104.445 24.9473C104.673 24.4095 104.805 23.7897 104.842 23.0879V21.2969C104.824 20.7227 104.746 20.2077 104.609 19.752C104.473 19.2871 104.281 18.8906 104.035 18.5625C103.789 18.2344 103.47 17.9792 103.078 17.7969C102.686 17.6146 102.221 17.5234 101.684 17.5234C101.164 17.5234 100.713 17.6419 100.33 17.8789C99.9564 18.1068 99.6419 18.4212 99.3867 18.8223C99.1406 19.2233 98.9538 19.6973 98.8262 20.2441C98.6986 20.7819 98.6348 21.3652 98.6348 21.9941ZM128.863 24.291C128.863 23.9355 128.809 23.6165 128.699 23.334C128.599 23.0423 128.408 22.778 128.125 22.541C127.842 22.2949 127.446 22.0534 126.936 21.8164C126.425 21.5794 125.764 21.3333 124.953 21.0781C124.051 20.7865 123.194 20.4583 122.383 20.0938C121.581 19.7292 120.87 19.3053 120.25 18.8223C119.639 18.3301 119.156 17.7604 118.801 17.1133C118.454 16.4661 118.281 15.7142 118.281 14.8574C118.281 14.028 118.464 13.276 118.828 12.6016C119.193 11.918 119.703 11.3346 120.359 10.8516C121.016 10.3594 121.79 9.98112 122.684 9.7168C123.586 9.45247 124.575 9.32031 125.65 9.32031C127.118 9.32031 128.398 9.58464 129.492 10.1133C130.586 10.6419 131.434 11.3665 132.035 12.2871C132.646 13.2077 132.951 14.2604 132.951 15.4453H128.877C128.877 14.862 128.754 14.3516 128.508 13.9141C128.271 13.4674 127.906 13.1165 127.414 12.8613C126.931 12.6061 126.32 12.4785 125.582 12.4785C124.871 12.4785 124.279 12.5879 123.805 12.8066C123.331 13.0163 122.975 13.3034 122.738 13.668C122.501 14.0234 122.383 14.4245 122.383 14.8711C122.383 15.2083 122.465 15.5137 122.629 15.7871C122.802 16.0605 123.057 16.3158 123.395 16.5527C123.732 16.7897 124.146 17.013 124.639 17.2227C125.131 17.4323 125.701 17.6374 126.348 17.8379C127.432 18.166 128.385 18.5352 129.205 18.9453C130.035 19.3555 130.727 19.8158 131.283 20.3262C131.839 20.8366 132.258 21.4154 132.541 22.0625C132.824 22.7096 132.965 23.4434 132.965 24.2637C132.965 25.1296 132.796 25.9043 132.459 26.5879C132.122 27.2715 131.634 27.8503 130.996 28.3242C130.358 28.7982 129.597 29.1582 128.713 29.4043C127.829 29.6504 126.84 29.7734 125.746 29.7734C124.762 29.7734 123.791 29.6458 122.834 29.3906C121.877 29.1263 121.007 28.7298 120.223 28.2012C119.448 27.6725 118.828 26.998 118.363 26.1777C117.898 25.3574 117.666 24.3867 117.666 23.2656H121.781C121.781 23.8854 121.877 24.4095 122.068 24.8379C122.26 25.2663 122.529 25.6126 122.875 25.877C123.23 26.1413 123.65 26.3327 124.133 26.4512C124.625 26.5697 125.163 26.6289 125.746 26.6289C126.457 26.6289 127.04 26.5286 127.496 26.3281C127.961 26.1276 128.303 25.8496 128.521 25.4941C128.749 25.1387 128.863 24.7376 128.863 24.291ZM142.754 14.707V17.4961H134.141V14.707H142.754ZM136.273 11.0566H140.211V25.043C140.211 25.4714 140.266 25.7995 140.375 26.0273C140.493 26.2552 140.667 26.4147 140.895 26.5059C141.122 26.5879 141.41 26.6289 141.756 26.6289C142.002 26.6289 142.221 26.6198 142.412 26.6016C142.613 26.5742 142.781 26.5469 142.918 26.5195L142.932 29.418C142.594 29.5273 142.23 29.6139 141.838 29.6777C141.446 29.7415 141.013 29.7734 140.539 29.7734C139.673 29.7734 138.917 29.6322 138.27 29.3496C137.632 29.0579 137.139 28.5931 136.793 27.9551C136.447 27.3171 136.273 26.4785 136.273 25.4395V11.0566ZM153.746 25.959V14.707H157.684V29.5H153.979L153.746 25.959ZM154.184 22.9238L155.346 22.8965C155.346 23.8809 155.232 24.7969 155.004 25.6445C154.776 26.4831 154.434 27.2122 153.979 27.832C153.523 28.4427 152.949 28.9212 152.256 29.2676C151.563 29.6048 150.747 29.7734 149.809 29.7734C149.089 29.7734 148.423 29.6732 147.812 29.4727C147.211 29.263 146.691 28.9395 146.254 28.502C145.826 28.0553 145.488 27.4857 145.242 26.793C145.005 26.0911 144.887 25.248 144.887 24.2637V14.707H148.824V24.291C148.824 24.7285 148.874 25.0977 148.975 25.3984C149.084 25.6992 149.234 25.9453 149.426 26.1367C149.617 26.3281 149.84 26.4648 150.096 26.5469C150.36 26.6289 150.652 26.6699 150.971 26.6699C151.782 26.6699 152.42 26.5059 152.885 26.1777C153.359 25.8496 153.691 25.403 153.883 24.8379C154.083 24.2637 154.184 23.6257 154.184 22.9238ZM169.428 26.2734V8.5H173.393V29.5H169.824L169.428 26.2734ZM160.076 22.2812V21.9941C160.076 20.8639 160.204 19.8385 160.459 18.918C160.714 17.9883 161.088 17.1908 161.58 16.5254C162.072 15.86 162.678 15.3451 163.398 14.9805C164.118 14.6159 164.939 14.4336 165.859 14.4336C166.725 14.4336 167.482 14.6159 168.129 14.9805C168.785 15.3451 169.341 15.8646 169.797 16.5391C170.262 17.2044 170.635 17.9928 170.918 18.9043C171.201 19.8066 171.406 20.7956 171.533 21.8711V22.5C171.406 23.5299 171.201 24.487 170.918 25.3711C170.635 26.2552 170.262 27.0299 169.797 27.6953C169.341 28.3516 168.785 28.862 168.129 29.2266C167.473 29.5911 166.707 29.7734 165.832 29.7734C164.911 29.7734 164.091 29.5866 163.371 29.2129C162.66 28.8392 162.059 28.3151 161.566 27.6406C161.083 26.9661 160.714 26.1732 160.459 25.2617C160.204 24.3503 160.076 23.3568 160.076 22.2812ZM164.014 21.9941V22.2812C164.014 22.8919 164.059 23.4616 164.15 23.9902C164.251 24.5189 164.41 24.9883 164.629 25.3984C164.857 25.7995 165.148 26.1139 165.504 26.3418C165.868 26.5605 166.311 26.6699 166.83 26.6699C167.505 26.6699 168.061 26.5195 168.498 26.2188C168.936 25.9089 169.268 25.485 169.496 24.9473C169.733 24.4095 169.87 23.7897 169.906 23.0879V21.2969C169.879 20.7227 169.797 20.2077 169.66 19.752C169.533 19.2871 169.341 18.8906 169.086 18.5625C168.84 18.2344 168.53 17.9792 168.156 17.7969C167.792 17.6146 167.359 17.5234 166.857 17.5234C166.347 17.5234 165.91 17.6419 165.545 17.8789C165.18 18.1068 164.884 18.4212 164.656 18.8223C164.438 19.2233 164.273 19.6973 164.164 20.2441C164.064 20.7819 164.014 21.3652 164.014 21.9941ZM180.625 14.707V29.5H176.674V14.707H180.625ZM176.428 10.8516C176.428 10.2773 176.628 9.80339 177.029 9.42969C177.43 9.05599 177.968 8.86914 178.643 8.86914C179.308 8.86914 179.841 9.05599 180.242 9.42969C180.652 9.80339 180.857 10.2773 180.857 10.8516C180.857 11.4258 180.652 11.8997 180.242 12.2734C179.841 12.6471 179.308 12.834 178.643 12.834C177.968 12.834 177.43 12.6471 177.029 12.2734C176.628 11.8997 176.428 11.4258 176.428 10.8516ZM183.25 22.2539V21.9668C183.25 20.8822 183.405 19.8841 183.715 18.9727C184.025 18.0521 184.476 17.2546 185.068 16.5801C185.661 15.9056 186.39 15.3815 187.256 15.0078C188.122 14.625 189.115 14.4336 190.236 14.4336C191.357 14.4336 192.355 14.625 193.23 15.0078C194.105 15.3815 194.839 15.9056 195.432 16.5801C196.033 17.2546 196.489 18.0521 196.799 18.9727C197.109 19.8841 197.264 20.8822 197.264 21.9668V22.2539C197.264 23.3294 197.109 24.3275 196.799 25.248C196.489 26.1595 196.033 26.957 195.432 27.6406C194.839 28.3151 194.11 28.8392 193.244 29.2129C192.378 29.5866 191.385 29.7734 190.264 29.7734C189.143 29.7734 188.145 29.5866 187.27 29.2129C186.404 28.8392 185.67 28.3151 185.068 27.6406C184.476 26.957 184.025 26.1595 183.715 25.248C183.405 24.3275 183.25 23.3294 183.25 22.2539ZM187.188 21.9668V22.2539C187.188 22.8737 187.242 23.4525 187.352 23.9902C187.461 24.528 187.634 25.002 187.871 25.4121C188.117 25.8132 188.436 26.1276 188.828 26.3555C189.22 26.5833 189.699 26.6973 190.264 26.6973C190.811 26.6973 191.28 26.5833 191.672 26.3555C192.064 26.1276 192.378 25.8132 192.615 25.4121C192.852 25.002 193.025 24.528 193.135 23.9902C193.253 23.4525 193.312 22.8737 193.312 22.2539V21.9668C193.312 21.3652 193.253 20.8001 193.135 20.2715C193.025 19.7337 192.848 19.2598 192.602 18.8496C192.365 18.4303 192.05 18.1022 191.658 17.8652C191.266 17.6283 190.792 17.5098 190.236 17.5098C189.68 17.5098 189.206 17.6283 188.814 17.8652C188.432 18.1022 188.117 18.4303 187.871 18.8496C187.634 19.2598 187.461 19.7337 187.352 20.2715C187.242 20.8001 187.188 21.3652 187.188 21.9668Z" fill="white"/>
<defs>
<clipPath id="clip0_405_3574">
<rect width="40" height="40" fill="white" transform="translate(0.5)"/>
</clipPath>
</defs>
</svg>
